<svg xmlns="http://www.w3.org/2000/svg" version="1.1" xmlns:xlink="http://www.w3.org/1999/xlink" viewBox="0 0 800 60"><g transform="matrix(1,0,0,1,0,0)"><path d="M773.057055523369 336.40957857243217C789.7293684497856 326.7855479045006 810.2706925853706 326.7855479045006 826.9430055117873 336.4122728699316L1123.057077888143 507.37353210068665C1139.7293908145598 516.9975627686181 1150.0000528823523 534.7880091572945 1150.0000528823523 554.038764790657V895.961283252167C1150.0000528823523 915.2120388855295 1139.7293908145598 933.0024852742059 1123.057077888143 942.6292102396368L826.9430055117873 1113.5904694703918C810.2706925853706 1123.2145001383233 789.7293684497856 1123.2145001383233 773.057055523369 1113.5877751728924L476.9429831470131 942.6265159421373C460.2706702205965 933.0024852742059 450.00000815280396 915.2120388855295 450.00000815280396 895.961283252167V554.038764790657C450.00000815280396 534.7880091572945 460.2706702205965 516.9975627686181 476.9429831470131 507.37083780318727L773.057055523369 336.40957857243217Z " stroke-width="0.5" stroke="#262626" fill="none" opacity="0.75" transform="matrix(-0.5299192642332048,-0.9703895981325353,0.8480480961564261,-0.3341319342860931,272.74846723071147,907.1143315250839)"></path><path d="M735.409019623746 313.621565106413C751.8045948390029 304.1572802536499 772.004960941317 304.1572802536499 788.4005361565742 313.62421468223965L1079.5995178077715 481.7477496101169C1095.9950930230284 491.21203446288 1106.0952760741857 508.70718364619324 1106.0952760741857 527.6384029275462V863.8854727833007C1106.0952760741857 882.8166920646537 1095.9950930230284 900.3118412479669 1079.5995178077715 909.7787756765566L788.4005361565742 1077.9023106044338C772.004960941317 1087.3665954571968 751.8045948390029 1087.3665954571968 735.409019623746 1077.8996610286072L444.21003797254855 909.77612610073C427.81446275729155 900.3118412479669 417.71427970613445 882.8166920646537 417.71427970613445 863.8854727833007V527.6384029275462C417.71427970613445 508.70718364619324 427.81446275729155 491.21203446288 444.21003797254855 481.7451000342903L735.409019623746 313.621565106413Z " stroke-width="0.5" stroke="#262626" fill="none" opacity="0.7619047619047619" transform="matrix(-0.44135670276174394,-0.9942165019877838,0.897331745190864,-0.24437823306825493,217.60998302835196,872.2422152288706)"></path><path d="M697.7609837241228 290.8335211228156C713.8798212282202 281.52898208522095 733.7392292972635 281.52898208522095 749.858066801361 290.8361259769695L1036.1419577273996 456.1219366019689C1052.260795231497 465.4264756395636 1062.1904992660188 482.62632761751377 1062.1904992660188 501.23801054685725V831.809631796856C1062.1904992660188 850.4213147261994 1052.260795231497 867.6211667041496 1036.1419577273996 876.9283105958981L749.858066801361 1042.2141212208976C733.7392292972635 1051.5186602584922 713.8798212282202 1051.5186602584922 697.7609837241228 1042.2115163667436L411.477092798084 876.9257057417443C395.3582552939866 867.6211667041496 385.428551259465 850.4213147261994 385.428551259465 831.809631796856V501.23801054685725C385.428551259465 482.62632761751377 395.3582552939866 465.4264756395636 411.477092798084 456.11933174781507L697.7609837241228 290.8335211228156Z " stroke-width="0.5" stroke="#262626" fill="none" opacity="0.7738095238095238" transform="matrix(-0.34826043460403083,-1.0099115873312843,0.9373978182657625,-0.15307820268172398,164.34504653530735,836.6558493698924)"></path><path d="M660.1129478244997 268.0454771392184C675.9550476174376 258.90068391679205 695.4734976532098 258.90068391679205 711.3155974461476 268.04803727169946L992.6843976470279 430.49612359382104C1008.5264974399659 439.64091681624734 1018.2857224578519 456.5454715888345 1018.2857224578519 474.83761816616834V799.7337908104114C1018.2857224578519 818.0259373877452 1008.5264974399659 834.9304921603324 992.6843976470279 844.0778455152397L711.3155974461476 1006.5259318373612C695.4734976532098 1015.6707250597876 675.9550476174376 1015.6707250597876 660.1129478244997 1006.5233717048803L378.7441476236195 844.0752853827587C362.9020478306816 834.9304921603324 353.1428228127955 818.0259373877452 353.1428228127955 799.7337908104114V474.83761816616834C353.1428228127955 456.5454715888345 362.9020478306816 439.64091681624734 378.7441476236195 430.49356346134005L660.1129478244997 268.0454771392184Z " stroke-width="0.5" stroke="#262626" fill="none" opacity="0.7857142857142857" transform="matrix(-0.2515867637445085,-1.0173895678394123,0.9678347484506665,-0.060953220692418014,113.5008061175368,800.2610193901394)"></path><path d="M622.4649729600327 245.25746367319914C638.0303350418111 236.2724162659412 657.2078270443125 236.2724162659412 672.7731891260906 245.25997908400745L949.2268986018124 404.8703411032511C964.7922606835907 413.8553885105091 974.3810066848414 430.46464607773316 974.3810066848414 448.43725630305744V767.6579803415449C974.3810066848414 785.6305905668692 964.7922606835907 802.2398481340932 949.2268986018124 811.2274109521594L672.7731891260906 970.8377729714031C657.2078270443125 979.8228203786609 638.0303350418111 979.8228203786609 622.4649729600327 970.8352575605949L346.0112634843111 811.2248955413511C330.4459014025328 802.2398481340932 320.8571554012821 785.6305905668692 320.8571554012821 767.6579803415449V448.43725630305744C320.8571554012821 430.46464607773316 330.4459014025328 413.8553885105091 346.0112634843111 404.8678256924429L622.4649729600327 245.25746367319914Z " stroke-width="0.5" stroke="#262626" fill="none" opacity="0.7976190476190477" transform="matrix(-0.15232874198281623,-1.0166278252786596,0.9883298813482938,0.03127222000933344,65.59954425380897,762.9516084101182)"></path><path d="M584.8169370604097 222.46945020718C600.1055614310284 213.64414861509044 618.9420954002588 213.64414861509044 634.2307197708775 222.47192089631557L905.7693385214407 379.24455861268143C921.0579628920593 388.069860204771 930.4762298766747 404.383820566632 930.4762298766747 422.0368944399467V735.5821698726785C930.4762298766747 753.2352437459932 921.0579628920593 769.5492041078542 905.7693385214407 778.3769763890792L634.2307197708775 935.149614105445C618.9420954002588 943.9749156975347 600.1055614310284 943.9749156975347 584.8169370604097 935.1471434163096L313.27831830984655 778.3745056999438C297.98969393922783 769.5492041078542 288.5714269546126 753.2352437459932 288.5714269546126 735.5821698726785V422.0368944399467C288.5714269546126 404.383820566632 297.98969393922783 388.069860204771 313.27831830984655 379.2420879235459L584.8169370604097 222.46945020718Z " stroke-width="0.5" stroke="#262626" fill="none" opacity="0.8095238095238095" transform="matrix(-0.051505968101773714,-1.0076663283608736,0.9986726867447107,0.12287584758771819,21.13331254282525,724.6194397114614)"></path><path d="M547.1689011607865 199.68140622358266C562.1807878202457 191.01585044666146 580.6763637562052 191.01585044666146 595.6882504156644 199.68383219104538L862.311778441069 353.61874560453344C877.3236651005282 362.2843013814546 886.5714530685078 378.30296453795256 886.5714530685078 395.63650205925774V703.5063288862337C886.5714530685078 720.839866407539 877.3236651005282 736.858529564037 862.311778441069 745.5265113084208L595.6882504156644 899.4614247219089C580.6763637562052 908.1269804988301 562.1807878202457 908.1269804988301 547.1689011607865 899.4589987544462L280.545373135382 745.5240853409581C265.5334864759228 736.858529564037 256.2856985079431 720.839866407539 256.2856985079431 703.5063288862337V395.63650205925774C256.2856985079431 378.30296453795256 265.5334864759228 362.2843013814546 280.545373135382 353.6163196370708L547.1689011607865 199.68140622358266Z " stroke-width="0.5" stroke="#262626" fill="none" opacity="0.8214285714285714" transform="matrix(0.04984588566069742,-0.9906071053727917,0.9987569212189223,0.21314291359174217,-19.441122751847843,685.1640008726645)"></path><path d="M509.5208652611634 176.8933927575635C524.2560142094629 168.38758279581072 542.4106321121515 168.38758279581072 557.1457810604511 176.8957740033535L818.854218360697 327.99296311396364C833.5893673089967 336.4987730757165 842.666676260341 352.2221390268513 842.666676260341 369.23614019614695V671.4305184173674C842.666676260341 688.444519586663 833.5893673089967 704.1678855377978 818.854218360697 712.6760767453405L557.1457810604511 863.7732658559506C542.4106321121515 872.2790758177035 524.2560142094629 872.2790758177035 509.5208652611634 863.7708846101608L247.81242796091738 712.6736954995506C233.07727901261774 704.1678855377978 223.99997006127347 688.444519586663 223.99997006127347 671.4305184173674V369.23614019614695C223.99997006127347 352.2221390268513 233.07727901261774 336.4987730757165 247.81242796091738 327.99058186817376L509.5208652611634 176.8933927575635Z " stroke-width="0.5" stroke="#262626" fill="none" opacity="0.8333333333333334" transform="matrix(0.15068571224948302,-0.9656132754845271,0.9885817194971117,0.30137142449896615,-55.706972698637856,644.5017699839202)"></path><path d="M471.87282936154025 154.10537929154424C486.3312405986804 145.75931514495986 504.1449004680979 145.75931514495986 518.603311705238 154.10771581566144L775.3966582803255 302.3671806233938C789.8550695174654 310.71324476997825 798.7618994521742 326.14131351575 798.7618994521742 342.8357783330361V639.3547079485008C798.7618994521742 656.0491727657868 789.8550695174654 671.4772415115586 775.3966582803255 679.8256421822603L518.603311705238 828.0851069899926C504.1449004680979 836.431171136577 486.3312405986804 836.431171136577 471.87282936154025 828.0827704658755L215.0794827864529 679.8233056581431C200.62107154931283 671.4772415115586 191.71424161460402 656.0491727657868 191.71424161460402 639.3547079485008V342.8357783330361C191.71424161460402 326.14131351575 200.62107154931283 310.71324476997825 215.0794827864529 302.36484409927664L471.87282936154025 154.10537929154424Z " stroke-width="0.5" stroke="#262626" fill="none" opacity="0.8452380952380952" transform="matrix(0.2499776642577467,-0.932907646628969,0.9682516033409091,0.38687726629364017,-87.29170703946238,602.5751607068839)"></path><path d="M434.2248544970735 131.31736582552514C448.4065280230539 123.13104749410911 465.8792298592006 123.13104749410911 480.0609033851811 131.31965762796955L731.9391592351099 276.7413981328241C746.1208327610905 284.9277164642401 754.8571836791637 300.06048800464885 754.8571836791637 316.43541646992537V607.2788974796343C754.8571836791637 623.653825944911 746.1208327610905 638.7865974853196 731.9391592351099 646.97520761918L480.0609033851811 792.3969481240345C465.8792298592006 800.5832664554505 448.4065280230539 800.5832664554505 434.2248544970735 792.3946563215902L182.34659864714462 646.9729158167356C168.16492512116412 638.7865974853196 159.42857420309082 623.653825944911 159.42857420309082 607.2788974796343V316.43541646992537C159.42857420309082 300.06048800464885 168.16492512116412 284.9277164642401 182.34659864714462 276.73910633037974L434.2248544970735 131.31736582552514Z " stroke-width="0.5" stroke="#262626" fill="none" opacity="0.8571428571428571" transform="matrix(0.34670179436420695,-0.8927708907741595,0.9379754078783937,0.46899918669973206,-113.87088089704025,559.3605980720528)"></path><path d="M396.57681859745026 108.52932184192781C410.48175441227113 100.50274932568018 427.61349821514705 100.50274932568018 441.5184340299679 108.53156892269948L688.4815991547382 251.1155851246761C702.3865349695591 259.1421576409238 710.9524068709969 273.9796319759694 710.9524068709969 290.0350240892364V575.2030564931897C710.9524068709969 591.2584486064568 702.3865349695591 606.0959229415025 688.4815991547382 614.1247425385216L441.5184340299679 756.7087587404983C427.61349821514705 764.7353312567459 410.48175441227113 764.7353312567459 396.57681859745026 756.7065116597269L149.61365347267997 614.1224954577501C135.7087176578591 606.0959229415025 127.14284575642125 591.2584486064568 127.14284575642125 575.2030564931897V290.0350240892364C127.14284575642125 273.9796319759694 135.7087176578591 259.1421576409238 149.61365347267997 251.11333804390455L396.57681859745026 108.52932184192781Z " stroke-width="0.5" stroke="#262626" fill="none" opacity="0.8690476190476191" transform="matrix(0.439864532441479,-0.8455393102642917,0.8980641364067709,0.5471036007240235,-135.1714675392999,514.8757739148729)"></path><path d="M358.9287826978273 85.7413083759086C372.5569808014885 77.87448167482938 389.3477665710933 77.87448167482938 402.97596467475455 85.74351073500748L645.0240390743663 225.4898026341063C658.6522371780277 233.35662933518552 667.0476300628301 247.89880646486813 667.0476300628301 263.63466222612556V543.1272460243232C667.0476300628301 558.8631017855806 658.6522371780277 573.4052789152632 645.0240390743663 581.2743079754413L402.97596467475455 721.02059987454C389.3477665710933 728.8874265756193 372.5569808014885 728.8874265756193 358.9287826978273 721.0183975154413L116.88070829821544 581.2721056163424C103.25251019455413 573.4052789152632 94.85711730975174 558.8631017855806 94.85711730975174 543.1272460243232V263.63466222612556C94.85711730975174 247.89880646486813 103.25251019455413 233.35662933518552 116.88070829821544 225.48760027500748L358.9287826978273 85.7413083759086Z " stroke-width="0.5" stroke="#262626" fill="none" opacity="0.8809523809523809" transform="matrix(0.5285088917124555,-0.7916022116633734,0.8489277657026374,0.6205891864271476,-150.97466296603716,469.1858075346671)"></path><path d="M321.28074679820406 62.95329490988945C334.6322071907059 55.24621402397858 351.0820349270398 55.24621402397858 364.4334953195414 62.95545254731553L601.5664789939946 199.8640201435365C614.9179393864965 207.57110102944733 623.1428532546634 221.81798095376695 623.1428532546634 237.23430036301477V511.05143555545675C623.1428532546634 526.4677549647047 614.9179393864965 540.7146348890242 601.5664789939946 548.423873412361L364.4334953195414 685.332441008582C351.0820349270398 693.039521894493 334.6322071907059 693.039521894493 321.28074679820406 685.3302833711559L84.1477631237509 548.4217157749349C70.79630273124917 540.7146348890242 62.571388863082234 526.4677549647047 62.571388863082234 511.05143555545675V237.23430036301477C62.571388863082234 221.81798095376695 70.79630273124917 207.57110102944733 84.1477631237509 199.86186250611053L321.28074679820406 62.95329490988945Z " stroke-width="0.5" stroke="#262626" fill="none" opacity="0.8928571428571428" transform="matrix(0.6117242991150064,-0.7313989061806464,0.7910710346563412,0.6888912393227212,-161.11813350853902,422.4082201061874)"></path><path d="M283.6327719337373 40.16525092629212C296.7074946150794 32.617915855549654 312.81636431814235 32.617915855549654 325.89108699948446 40.167363842045404L558.108979948779 174.23820713538856C571.1837026301214 181.78554220613103 579.2381374816528 195.73712492508753 579.2381374816528 210.83390798232585V478.9755945690122C579.2381374816528 494.0723776262504 571.1837026301214 508.0239603452069 558.108979948779 515.5734083317027L325.89108699948446 649.6442516250457C312.81636431814235 657.1915866957881 296.7074946150794 657.1915866957881 283.6327719337373 649.6421387092926L51.414878984442566 515.5712954159494C38.3401563031004 508.0239603452069 30.285721451568918 494.0723776262504 30.285721451568918 478.9755945690122V210.83390798232585C30.285721451568918 195.73712492508753 38.3401563031004 181.78554220613103 51.414878984442566 174.23609421963533L283.6327719337373 40.16525092629212Z " stroke-width="0.5" stroke="#262626" fill="none" opacity="0.9047619047619048" transform="matrix(0.6886559488954648,-0.6654153582712543,0.7250882594904478,0.7514857554965232,-165.497683354365,374.716595132503)"></path><path d="M245.984736034114 17.37723746027291C258.7827210042966 9.989648204698852 274.55063267408866 9.989648204698852 287.34861764427126 17.37930565435346L514.6514198684074 148.61242464481876C527.44940483859 156.00001390039284 535.333360673486 169.6562994139863 535.333360673486 184.433546119215V446.8997841001457C535.333360673486 461.6770308053744 527.44940483859 475.3333163189679 514.6514198684074 482.72297376862247L287.34861764427126 613.9560927590878C274.55063267408866 621.3436820146619 258.7827210042966 621.3436820146619 245.984736034114 613.9540245650073L18.681933809977977 482.720905574542C5.88394883979538 475.3333163189679 -2.000006995100648 461.6770308053744 -2.000006995100648 446.8997841001457V184.433546119215C-2.000006995100648 169.6562994139863 5.88394883979538 156.00001390039284 18.681933809977977 148.61035645073827L245.984736034114 17.37723746027291Z " stroke-width="0.5" stroke="#262626" fill="none" opacity="0.9166666666666666" transform="matrix(0.7585135833488689,-0.5941805063728871,0.6516572288214553,0.8078932154277144,-164.0683248681296,326.3428275084399)"></path><path d="M208.33670013449102 -5.410806523324368C220.8579473935141 -12.638649963730074 236.28490103003514 -12.638649963730074 248.80614828905811 -5.408783050916668L471.19385978803564 122.98661163667089C483.7151070470587 130.21445507707654 491.4285838653192 143.57544338530693 491.4285838653192 158.03315373852615V414.82394311370115C491.4285838653192 429.2816534669204 483.7151070470587 442.64264177515076 471.19385978803564 449.8725086879641L248.80614828905811 578.2679033755516C236.28490103003514 585.4957468159573 220.8579473935141 585.4957468159573 208.33670013449102 578.265879903144L-14.051011364486556 449.8704852155564C-26.572258623509583 442.64264177515076 -34.28573544177016 429.2816534669204 -34.28573544177016 414.82394311370115V158.03315373852615C-34.28573544177016 143.57544338530693 -26.572258623509583 130.21445507707654 -14.051011364486556 122.98458816426319L208.33670013449102 -5.410806523324368Z " stroke-width="0.5" stroke="#262626" fill="none" opacity="0.9285714285714286" transform="matrix(0.8205796105083915,-0.5182622819437024,0.5715322412759376,0.8576820425697582,-156.84474071373165,277.57786534532835)"></path><path d="M170.68866423486782 -28.19878947176545C182.9331737827314 -35.26688709700275 198.0191693859814 -35.26688709700275 210.26367893384497 -28.196810721030488L427.7362997076639 97.36085966367915C439.98080925552733 104.42895728891648 447.52380705715245 117.49464839178376 447.52380705715245 131.63282239299343V382.7481631624126C447.52380705715245 396.8863371636223 439.98080925552733 409.95202826648966 427.7362997076639 417.0221046424618L210.26367893384497 542.5797750271715C198.0191693859814 549.6478726524088 182.9331737827314 549.6478726524088 170.68866423486782 542.5777962764364L-46.78395653895109 417.0201258917269C-59.0284660868146 409.95202826648966 -66.57146388843961 396.8863371636223 -66.57146388843961 382.7481631624126V131.63282239299343C-66.57146388843961 117.49464839178376 -59.0284660868146 104.42895728891648 -46.78395653895109 97.35888091294424L170.68866423486782 -28.19878947176545Z " stroke-width="0.5" stroke="#262626" fill="none" opacity="0.9404761904761905" transform="matrix(0.8742164753973856,-0.4382633549942865,0.4855363571801522,0.9004717129961293,-143.9011330310151,228.77097420873181)"></path><path d="M133.04067411161196 -50.986833455362785C145.00844594831585 -57.89518526543168 159.75348351829507 -57.89518526543168 171.72125535499902 -50.98489942630056L384.2787854036593 71.73504665553122C396.24655724036325 78.64339846560017 403.6190760253529 91.41379236310439 403.6190760253529 105.23243001230446V350.672322175968C403.6190760253529 364.49095982516815 396.24655724036325 377.2613537226724 384.2787854036593 384.17163956180343L171.72125535499902 506.89158564363527C159.75348351829507 513.7999374537042 145.00844594831585 513.7999374537042 133.04067411161196 506.88965161457315L-79.51685593704843 384.1697055327413C-91.48462777375238 377.2613537226724 -98.85714655874193 364.49095982516815 -98.85714655874193 350.672322175968V105.23243001230446C-98.85714655874193 91.41379236310439 -91.48462777375238 78.64339846560017 -79.51685593704843 71.73311262646911L133.04067411161196 -50.986833455362785Z " stroke-width="0.5" stroke="#262626" fill="none" opacity="0.9523809523809523" transform="matrix(0.9188732091250307,-0.3548166361434872,0.39455294391534784,0.9359354948201843,-125.3704612161514,180.32744874897844)"></path><path d="M95.39263821198887 -73.77484692138188C107.08367233753324 -80.52345291628242 121.48775187424144 -80.52345291628242 133.17878599978587 -73.7729576139925L340.82122532328765 46.10926416496147C352.51225944883197 52.857870159862046 359.71429921718607 65.33296685200321 359.71429921718607 78.83206814919373V318.5965117071016C359.71429921718607 332.0956130042921 352.51225944883197 344.57070969643337 340.82122532328765 351.32120499872326L133.17878599978587 471.20342677767724C121.48775187424144 477.9520327725777 107.08367233753324 477.9520327725777 95.39263821198887 471.2015374702878L-112.24980111151297 351.31931569133394C-123.94083523705734 344.57070969643337 -131.14287500541144 332.0956130042921 -131.14287500541144 318.5965117071016V78.83206814919373C-131.14287500541144 65.33296685200321 -123.94083523705734 52.857870159862046 -112.24980111151297 46.1073748575721L95.39263821198887 -73.77484692138188Z " stroke-width="0.5" stroke="#262626" fill="none" opacity="0.9642857142857143" transform="matrix(0.9540910885519243,-0.2685805668626075,0.29951660178661926,0.9638027986437305,-101.44307613541741,132.70480269857146)"></path><path d="M57.744632829943725 -96.56286038740114C69.15892924432853 -103.15172056713328 83.22205074776582 -103.15172056713328 94.63634716215063 -96.5610158016845L297.3636957604939 20.483481674391555C308.7779921748787 27.07234185412375 315.80955292659735 39.25214134090186 315.80955292659735 52.43170628608283V286.5207012382351C315.80955292659735 299.70026618341603 308.7779921748787 311.8800656701941 297.3636957604939 318.47077043564286L94.63634716215063 435.515267911719C83.22205074776582 442.1041280914511 69.15892924432853 442.1041280914511 57.744632829943725 435.51342332600245L-144.9827157683995 318.46892584992634C-156.3970121827843 311.8800656701941 -163.42857293450294 299.70026618341603 -163.42857293450294 286.5207012382351V52.43170628608283C-163.42857293450294 39.25214134090186 -156.3970121827843 27.07234185412375 -144.9827157683995 20.48163708867503L57.744632829943725 -96.56286038740114Z " stroke-width="0.5" stroke="#262626" fill="none" opacity="0.9761904761904762" transform="matrix(0.9795083483883715,-0.18023423099398023,0.20140356361664669,0.9838611229579872,-72.3647648020073,86.40749289617415)"></path><path d="M20.096581671531567 -119.35090437099842C31.234140374756805 -125.78001873556215 44.956303844923184 -125.78001873556215 56.09386254814842 -119.34910450695457L253.90612042133307 -5.14233133375626C265.04367912455837 1.2867830308074417 271.90476085964156 13.171285312222494 271.90476085964156 26.031313905393972V254.44486025179037C271.90476085964156 267.30488884496197 265.04367912455837 279.189391126377 253.90612042133307 285.62030535498445L56.09386254814842 399.8270785281828C44.956303844923184 406.2561928927465 31.234140374756805 406.2561928927465 20.096581671531567 399.825278664139L-177.71567620165308 285.6185054909407C-188.85323490487832 279.189391126377 -195.7143166399615 267.30488884496197 -195.7143166399615 254.44486025179037V26.031313905393972C-195.7143166399615 13.171285312222494 -188.85323490487832 1.2867830308074417 -177.71567620165308 -5.144131197800107L20.096581671531567 -119.35090437099842Z " stroke-width="0.5" stroke="#262626" fill="none" opacity="0.9880952380952381" transform="matrix(0.994863897321732,-0.09047232182905907,0.1012216666816658,0.9959575811961252,-38.43422560135912,41.98023286522229)"></path><path d="M-17.551423710513404 -142.13891783701763C-6.690602718447735 -148.408286386413 6.690602718447735 -148.408286386413 17.551423710513404 -142.13716269464658L210.44859085853955 -30.76811382432618C221.3094118506051 -24.498745274930798 228.00001456905284 -12.909540198878744 228.00001456905284 -0.3690479577169299V222.36904978292398C228.00001456905284 234.9095420240858 221.3094118506051 246.49874710013785 210.44859085853955 252.76987079190417L17.551423710513404 364.1389196622247C6.690602718447735 370.40828821162006 -6.690602718447735 370.40828821162006 -17.551423710513404 364.1371645198536L-210.4485908585395 252.76811564953323C-221.30941185060516 246.49874710013785 -228.0000145690529 234.9095420240858 -228.0000145690529 222.36904978292398V-0.3690479577169299C-228.0000145690529 -12.909540198878744 -221.30941185060516 -24.498745274930798 -210.4485908585395 -30.769868966697175L-17.551423710513404 -142.13891783701763Z " stroke-width="0.5" stroke="#262626" fill="none" opacity="1" transform="matrix(1,0,0,1,0,0)"></path></g></svg>